<!-- Generated by IcoMoon.io -->
<svg version="1.1" xmlns="http://www.w3.org/2000/svg" width="16" height="16" viewBox="0 0 16 16">
<title>uniE180</title>
<path d="M12.176 0.944q0.512 0.112 0.84 0.496t0.328 0.896v11.392q0 0.576-0.408 0.992t-0.984 0.416-0.984-0.416-0.408-0.992v-5.344q-1.056-0.448-1.056-1.696v-3.92q0-0.896 0.472-1.4t1.768-0.504q0.224 0 0.432 0.080zM7.936 1.728v2.784q0.016 0.016 0.016 0.144v1.472q0 0.4-0.344 0.712t-0.904 0.472v6.416q0 0.576-0.416 0.992t-0.992 0.416-0.976-0.416-0.4-0.992v-6.384q-1.264-0.352-1.264-1.216v-4.4q0-0.24 0.168-0.416t0.408-0.176q0.48 0 0.608 0.528v2.992q0 0.176 0.128 0.304t0.304 0.128q0.192 0 0.32-0.128t0.128-0.304v-3.008q0.080-0.512 0.576-0.512 0.24 0 0.408 0.168t0.2 0.408v2.944q0 0.176 0.128 0.304t0.304 0.128 0.312-0.128 0.136-0.304v-3.040q0.080-0.48 0.576-0.48 0.24 0 0.408 0.176t0.168 0.416z"></path>
</svg>
