<!-- Generated by IcoMoon.io -->
<svg version="1.1" xmlns="http://www.w3.org/2000/svg" width="16" height="16" viewBox="0 0 16 16">
<title>uniE102</title>
<path d="M10.912 8.704q2.144 1.040 2.144 3.808v0.352q0 0.24-0.176 0.4t-0.464 0.16h-8.864q-0.256 0-0.432-0.168t-0.176-0.392v-0.352q0-2.736 2.096-3.776 1.184 1.216 2.944 1.216 1.728 0 2.928-1.248zM14.192 7.536q1.744 0.88 1.744 3.088v0.288q0 0.192-0.152 0.336t-0.36 0.144h-1.808q-0.304-1.856-1.696-2.864 1.328-0.016 2.272-0.992zM4.064 8.544q-1.376 0.96-1.68 2.848h-1.808q-0.224 0-0.368-0.144t-0.144-0.336v-0.288q0-2.208 1.696-3.088 0.992 0.944 2.304 1.008zM7.984 3.456q1.184 0 2.016 0.84t0.832 2.040q0 1.184-0.832 2.032t-2.016 0.848q-1.216 0-2.048-0.848t-0.832-2.032q0-1.2 0.832-2.040t2.048-0.84zM11.792 2.576q1.088 0 1.848 0.768t0.76 1.84-0.76 1.84-1.848 0.768q-0.336 0-0.576-0.064 0.304-0.688 0.304-1.392 0-0.928-0.432-1.696t-1.184-1.264q0.72-0.8 1.888-0.8zM4.432 6.336q0 0.752 0.288 1.392-0.256 0.064-0.56 0.064-1.088 0-1.856-0.76t-0.768-1.848 0.768-1.848 1.856-0.76q1.152 0 1.872 0.8-1.6 1.072-1.6 2.96z"></path>
</svg>
