<!-- Generated by IcoMoon.io -->
<svg version="1.1" xmlns="http://www.w3.org/2000/svg" width="1024" height="1024" viewBox="0 0 1024 1024">
<title></title>
<g id="icomoon-ignore">
</g>
<path d="M747.52 927.744q26.624 0 26.624 17.408 0 9.216-6.656 15.872t-15.872 6.656h-330.752q-52.224 0-104.96-50.688t-86.528-125.44q-55.296-49.152-91.648-124.416t-36.352-153.088q0-76.8 33.28-146.432t87.552-118.784q32.768-83.968 91.136-138.24t107.52-54.272h330.752q9.216 0 15.872 6.144t6.656 15.36-6.144 15.36-15.36 6.144h-66.56q-25.6 2.048-75.776 53.248t-62.464 100.352l14.336 17.408q88.064 103.424 88.064 247.808 0 67.584-29.184 139.776t-73.216 121.344q21.504 56.32 54.272 95.232t61.44 51.2q6.144 2.048 8.192 2.048h75.776zM369.664 744.448q82.944 0 141.824-69.632t58.88-166.912-58.88-166.4-141.824-69.12-141.312 69.12-58.368 166.4 58.368 166.912 141.312 69.632zM369.664 302.080q70.656 0 120.832 60.416t50.176 145.408-50.176 145.92-120.832 60.928-120.32-60.928-49.664-145.92 49.664-145.408 120.32-60.416zM464.896 482.304q8.192-12.288 3.072-27.136t-20.48-25.088q-14.336-9.216-30.72-7.168t-23.552 14.336-3.072 27.648q-8.192-4.096-21.504-4.096t-22.528 4.096q6.144-15.36-2.048-27.648-7.168-12.288-23.552-14.336t-30.72 7.168q-15.36 10.24-20.48 25.088t3.072 27.136q11.264 19.456 37.888 14.336-8.192 14.336-8.192 30.72 0 27.648 19.456 47.104t47.104 19.456 47.104-19.456 19.456-47.104q0-16.384-8.192-30.72 26.624 5.12 37.888-14.336zM806.912 150.528q48.128 58.368 81.92 155.136t33.792 201.216q0 116.736-33.28 217.088t-85.504 153.6q-8.192 8.192-20.48 8.192h-88.064q-22.528 0-36.864-17.408-4.096-5.12-11.776-13.312t-11.264-12.8-9.216-11.776-10.24-15.36-9.728-18.432q98.304-143.36 98.304-280.576 0-147.456-100.352-283.648 28.672-47.104 66.56-77.824 18.432-15.36 29.696-15.36h83.968q14.336 0 22.528 11.264zM761.856 765.952q16.384 0 28.16-10.24t11.776-23.552-11.776-23.552-28.16-10.24-28.16 10.24-11.776 23.552 11.776 23.552 28.16 10.24zM811.008 581.632q16.384 0 28.16-10.24t11.776-23.552q0-14.336-11.776-24.064t-28.16-9.728-27.648 9.728-11.264 24.064 11.264 24.064 27.648 9.728z"></path>
</svg>
