<!-- Generated by IcoMoon.io -->
<svg version="1.1" xmlns="http://www.w3.org/2000/svg" width="20" height="16" viewBox="0 0 20 16">
<title>uniE10D</title>
<path d="M7.687 8.328q0.88 0 1.52 0.64t0.64 1.52-0.64 1.52-1.52 0.64-1.52-0.64-0.64-1.52 0.64-1.52 1.52-0.64zM9.127 10.376q0.128-0.176 0.072-0.432t-0.264-0.416q-0.224-0.16-0.48-0.144t-0.4 0.208-0.064 0.464q-0.144-0.048-0.304-0.048t-0.304 0.048q0.064-0.288-0.080-0.464-0.144-0.192-0.4-0.208t-0.464 0.144q-0.224 0.16-0.28 0.416t0.088 0.432q0.192 0.256 0.544 0.208-0.080 0.192-0.080 0.4 0 0.416 0.288 0.696t0.688 0.28 0.688-0.288 0.288-0.688q0-0.224-0.096-0.4 0.368 0.048 0.56-0.208zM12.407 7.080q0.304 0 0.512 0.208t0.208 0.512v5.424q0 0.304-0.208 0.52t-0.512 0.216h-9.44q-0.304 0-0.512-0.216t-0.208-0.52v-5.424q0-0.304 0.208-0.512t0.512-0.208h2.544l0.32-1.248q0.016-0.256 0.2-0.44t0.456-0.184h2.4q0.256 0 0.448 0.192 0.176 0.16 0.208 0.464l0.304 1.216h2.56zM7.687 13.16q1.104 0 1.888-0.784t0.784-1.888-0.784-1.888-1.888-0.784-1.88 0.784-0.776 1.888 0.776 1.888 1.88 0.784zM11.751 9.288q0.208 0 0.368-0.16t0.16-0.368-0.16-0.368-0.368-0.16h-0.464q-0.208 0-0.36 0.152t-0.152 0.376 0.152 0.376 0.36 0.152h0.464zM4.919 2.040q0.064 0 0.080 0.048l0.208 1.088 0.752 0.192q0.048 0.032 0.048 0.064 0 0.064-0.048 0.064l-0.752 0.192-0.208 1.136q-0.016 0.048-0.080 0.048t-0.064-0.048l-0.208-1.136-0.736-0.192q-0.064 0-0.064-0.064 0-0.032 0.064-0.064l0.736-0.192 0.208-1.088q0-0.048 0.064-0.048zM3.431 5.224l0.656 0.128q0.064 0 0.064 0.064 0 0.048-0.064 0.080l-0.656 0.096-0.112 0.48q0 0.064-0.064 0.064t-0.064-0.064l-0.128-0.48-0.752-0.096q-0.064-0.016-0.064-0.080t0.064-0.064l0.752-0.128 0.128-0.608q0-0.064 0.064-0.064t0.064 0.064zM2.583 3.544q0.144 0 0.24-0.104t0.096-0.232q0-0.144-0.096-0.24t-0.24-0.096-0.24 0.096-0.096 0.24q0 0.128 0.096 0.232t0.24 0.104zM12.247 4.952q0.048-0.016 0.048-0.080t-0.048-0.080l-1.328-0.768q-0.048-0.016-0.096 0t-0.048 0.080v1.536q0 0.064 0.048 0.080 0.016 0.016 0.048 0.016t0.048-0.016zM17.623 7.112q0.176 0.288 0.080 0.608l-1.312 4.912q-0.064 0.272-0.288 0.44t-0.496 0.168q-0.080 0-0.208-0.032l-1.536-0.4v-0.816l1.728 0.464q0.016 0.016 0.032 0.008t0.016-0.024l1.312-4.928q0-0.032-0.016-0.032l-4-1.104q-0.16-0.032-0.232-0.176t-0.040-0.304q0.112-0.352 0.48-0.272l1.696 0.464v-3.152q0-0.032-0.032-0.032h-6.752q0 0.016-0.016 0.032t-0.016 0.032v1.536h-0.768v-1.536q0-0.352 0.256-0.592 0.224-0.24 0.544-0.24h6.752q0.336 0 0.576 0.232t0.24 0.568v3.376l1.52 0.416q0.304 0.080 0.48 0.384z"></path>
</svg>
