<!-- Generated by IcoMoon.io -->
<svg version="1.1" xmlns="http://www.w3.org/2000/svg" width="16" height="16" viewBox="0 0 16 16">
<title>uniE314</title>
<path d="M13.344 4.696h-10.688q-0.48 0-0.808-0.328t-0.328-0.808q0-0.464 0.328-0.8t0.808-0.336h10.688q0.48 0 0.808 0.336t0.328 0.8q0 0.48-0.328 0.808t-0.808 0.328zM13.344 9.144h-10.688q-0.48 0-0.808-0.336t-0.328-0.8 0.328-0.8 0.808-0.336h10.688q0.48 0 0.808 0.336t0.328 0.8-0.328 0.8-0.808 0.336zM13.344 13.576h-10.688q-0.48 0-0.808-0.328t-0.328-0.808q0-0.464 0.328-0.8t0.808-0.336h10.688q0.48 0 0.808 0.336t0.328 0.8q0 0.48-0.328 0.808t-0.808 0.328z"></path>
</svg>
