<!-- Generated by IcoMoon.io -->
<svg version="1.1" xmlns="http://www.w3.org/2000/svg" width="16" height="16" viewBox="0 0 16 16">
<title>uniE280</title>
<path d="M10.883 5.494h4.336q0.224 0 0.376 0.16t0.152 0.384v8.224q0 0.208-0.152 0.368t-0.376 0.16h-10.032q-0.224 0-0.384-0.16t-0.16-0.368l-0.048-3.088 5.488-0.912q0.656-0.128 1.040-0.672 0.384-0.512 0.256-1.2zM7.923 13.51v-1.632h-1.76v1.632h1.76zM11.123 13.51v-1.632h-1.76v1.632h1.76zM14.323 13.51v-1.632h-1.744v1.632h1.744zM14.323 8.422v-1.648h-1.744v1.648h1.744zM8.803 1.67l1.184 6.752q0.032 0.208-0.096 0.408t-0.368 0.248l-7.424 1.216q-0.24 0.048-0.432-0.088t-0.224-0.376l-1.184-6.672q-0.032-0.24 0.096-0.448t0.352-0.256l7.44-1.232q0.208-0.048 0.408 0.096t0.248 0.352zM4.627 3.11q-0.624 0.112-0.976 0.616t-0.256 1.128q0.112 0.608 0.624 0.976 0.528 0.368 1.136 0.24 0.608-0.096 0.968-0.616t0.264-1.112q-0.128-0.64-0.64-0.992t-1.12-0.24zM3.555 8.934l4.144-0.736q0.288-0.048 0.24-0.32l-0.032-0.16q-0.24-1.248-1.264-1.584-0.016 0-0.016 0.016-0.016-0.016-0.048-0.016-0.496 0.64-1.232 0.8-0.8 0.176-1.44-0.336l-0.048 0.032-0.016-0.016q-0.88 0.72-0.64 1.936l0.016 0.16q0.016 0.112 0.12 0.176t0.216 0.048z"></path>
</svg>
