<!-- Generated by IcoMoon.io -->
<svg version="1.1" xmlns="http://www.w3.org/2000/svg" width="16" height="16" viewBox="0 0 16 16">
<title>uniE24E</title>
<path d="M10.674 12.112l1.504-1.504v2.88q0 0.8-0.56 1.376t-1.36 0.576h-7.056q-0.8 0-1.376-0.576t-0.576-1.376v-9.568q0-0.816 0.568-1.368t1.384-0.552h1.12q0.048-0.064 0.096-0.064 0.336-0.64 0.944-1.008t1.36-0.368q0.736 0 1.344 0.368t0.944 1.008q0.064 0 0.128 0.064h1.12q0.72 0 1.256 0.48t0.648 1.168q-0.24 0.128-0.752 0.528l-0.752 0.784v-1.040q0-0.16-0.12-0.28t-0.28-0.12h-0.944v0.88q0 0.176-0.12 0.304t-0.312 0.128h-4.32q-0.192 0-0.32-0.128t-0.128-0.304v-0.88h-0.912q-0.16 0-0.28 0.12t-0.12 0.28v9.568q0 0.16 0.12 0.28t0.28 0.12h7.056q0.16 0 0.28-0.12t0.12-0.28v-1.36zM6.722 1.488q-0.32 0-0.544 0.224t-0.224 0.544 0.224 0.536 0.544 0.216 0.536-0.216 0.216-0.536-0.216-0.544-0.536-0.224zM7.138 9.952l2.096 2.096q-0.336 0.304-1.36 0.512t-1.232 0 0-1.248 0.496-1.36zM14.322 4.88q0.368 0.368 0.416 0.816t-0.096 0.784-0.368 0.56l-4.272 4.272-2.112-2.096 4.288-4.288q0.256-0.224 0.56-0.368t0.752-0.104 0.832 0.424zM7.202 8.416l-0.784 0.784h-2.128q-0.16 0-0.264-0.112t-0.104-0.272 0.104-0.28 0.264-0.12h2.912zM9.234 6.368l-0.752 0.768h-4.224q-0.16 0-0.272-0.112t-0.112-0.272 0.112-0.272 0.272-0.112h4.976z"></path>
</svg>
