<!-- Generated by IcoMoon.io -->
<svg version="1.1" xmlns="http://www.w3.org/2000/svg" width="16" height="16" viewBox="0 0 16 16">
<title>uniE310</title>
<path d="M11.852 9.632l3.136 3.12q0.448 0.432 0.448 1.048t-0.448 1.048l-0.128 0.144q-0.448 0.432-1.064 0.432t-1.064-0.432l-3.12-3.12-0.032-0.048q-1.696 0.992-3.744 0.736t-3.504-1.712q-1.76-1.76-1.768-4.248t1.768-4.264q1.76-1.76 4.264-1.76t4.264 1.76q1.44 1.44 1.696 3.52t-0.736 3.728q0.032 0 0.032 0.048zM4.252 8.944q0.96 0.96 2.336 0.96t2.352-0.96q0.976-0.976 0.976-2.344t-0.976-2.344q-1.008-0.992-2.36-0.984t-2.328 0.984-0.976 2.344 0.976 2.344z"></path>
</svg>
