<!-- Generated by IcoMoon.io -->
<svg version="1.1" xmlns="http://www.w3.org/2000/svg" width="16" height="16" viewBox="0 0 16 16">
<title>uniE01D</title>
<path d="M13.712 4.888l0.448 9.776q0.032 0.288-0.192 0.512-0.256 0.256-0.48 0.256h-10.976q-0.304 0-0.512-0.24-0.192-0.192-0.16-0.48l0.432-9.824q0.016-0.272 0.208-0.44t0.48-0.168h2.272v-1.216q0-1.088 0.784-1.792t1.984-0.704q1.216 0 1.992 0.76t0.776 1.704v1.248h2.272q0.288 0 0.472 0.168t0.2 0.44zM6.176 3.064v1.216h3.648v-1.28q0-0.528-0.504-1.008t-1.32-0.48q-0.8 0-1.312 0.424t-0.512 1.080v0.048zM11.872 9.064q0.368-0.512 0.224-1.184t-0.736-1.104q-0.608-0.448-1.288-0.4t-1.048 0.56q-0.4 0.528-0.208 1.248-0.464-0.144-0.816-0.144t-0.816 0.144q0.192-0.72-0.208-1.248-0.368-0.512-1.056-0.56t-1.28 0.4q-0.592 0.432-0.736 1.104t0.224 1.184q0.512 0.688 1.472 0.528-0.224 0.528-0.224 1.088 0 1.088 0.768 1.856t1.856 0.768 1.856-0.768 0.768-1.856q0-0.592-0.24-1.088 0.976 0.16 1.488-0.528z"></path>
</svg>
